<?xml version="1.0" encoding="iso-8859-1"?>
<!-- Generator: Adobe Illustrator 19.0.0, SVG Export Plug-In . SVG Version: 6.00 Build 0)  -->
<svg version="1.1" id="Capa_1" xmlns="http://www.w3.org/2000/svg" xmlns:xlink="http://www.w3.org/1999/xlink" x="0px" y="0px"
	 viewBox="0 0 464 464" style="enable-background:new 0 0 464 464;" xml:space="preserve">
<circle style="fill:#FFB398;" cx="72" cy="176" r="40"/>
<path style="fill:#FFD422;" d="M104,96L104,96c0-26.51-21.49-48-48-48v0c26.51,0,48-21.49,48-48h0c0,26.51,21.49,48,48,48v0
	C125.49,48,104,69.49,104,96z"/>
<path style="fill:#5AAAE7;" d="M328,448L328,448c0-26.51-21.49-48-48-48v0c26.51,0,48-21.49,48-48h0c0,26.51,21.49,48,48,48v0
	C349.49,400,328,421.49,328,448z"/>
<path style="fill:#FFD422;" d="M16,216L16,216c-8.837,0-16,7.163-16,16v56c0,8.837,7.163,16,16,16h40c8.837,0,16-7.163,16-16v0
	c0-8.837-7.163-16-16-16H32v32v33.373c0,4.243,1.686,8.313,4.686,11.314L72,384v64c0,8.837,7.163,16,16,16h0c8.837,0,16-7.163,16-16
	v-73.373c0-4.243-1.686-8.313-4.686-11.314L80,344l24-24l32,32v64c0,8.837,7.163,16,16,16h0c8.837,0,16-7.163,16-16v-73.373
	c0-4.243-1.686-8.313-4.686-11.314L120,288v-40h64c8.837,0,16-7.163,16-16v-56c0-8.837-7.163-16-16-16h0c-8.837,0-16,7.163-16,16v40
	h-48H16z"/>
<circle style="fill:#FFB398;" cx="360" cy="40" r="40"/>
<g>
	<path style="fill:#F40E34;" d="M400,80h48c8.837,0,16,7.163,16,16v48c0,8.837-7.163,16-16,16h0c-8.837,0-16-7.163-16-16v-32h-32
		v89.373c0,4.243-1.686,8.313-4.686,11.314L368,240l36.686,36.686c6.248,6.248,6.248,16.379,0,22.627l-1.373,1.373
		c-6.248,6.248-16.379,6.248-22.627,0l-49.373-49.373c-6.248-6.248-6.248-16.379,0-22.627L352,208l-24-24l-32,32v64
		c0,8.837-7.163,16-16,16h0c-8.837,0-16-7.163-16-16v-73.373c0-4.243,1.686-8.313,4.686-11.314L312,152v-40h-48
		c-8.837,0-16-7.163-16-16V40c0-8.837,7.163-16,16-16h0c8.837,0,16,7.163,16,16v40h32H400z"/>
	<rect x="352" y="32" style="fill:#F40E34;" width="16" height="24"/>
	<path style="fill:#F40E34;" d="M88,192H64v-16h16v-16h16v24C96,188.418,92.422,192,88,192z"/>
</g>
<g>
</g>
<g>
</g>
<g>
</g>
<g>
</g>
<g>
</g>
<g>
</g>
<g>
</g>
<g>
</g>
<g>
</g>
<g>
</g>
<g>
</g>
<g>
</g>
<g>
</g>
<g>
</g>
<g>
</g>
</svg>
