<?xml version="1.0" standalone="no"?>
<!DOCTYPE svg PUBLIC "-//W3C//DTD SVG 20010904//EN"
 "http://www.w3.org/TR/2001/REC-SVG-20010904/DTD/svg10.dtd">
<svg version="1.0" xmlns="http://www.w3.org/2000/svg"
 width="400.000000pt" height="400.000000pt" viewBox="0 0 400.000000 400.000000"
 preserveAspectRatio="xMidYMid meet">
<metadata>
Created by potrace 1.11, written by Peter Selinger 2001-2013
</metadata>
<g transform="translate(0.000000,400.000000) scale(0.100000,-0.100000)"
fill="#000000" stroke="none">
<path d="M2623 3503 c-45 -93 -148 -303 -228 -468 -81 -165 -190 -388 -242
-495 -53 -107 -140 -287 -195 -400 -55 -113 -140 -288 -189 -390 -49 -102 -93
-192 -99 -200 -10 -16 -46 -92 -71 -147 -7 -18 -17 -33 -20 -33 -4 0 -127 75
-275 166 -148 92 -317 197 -376 233 -59 36 -198 122 -309 191 -111 69 -213
132 -228 140 -14 8 -75 46 -136 84 -60 38 -131 82 -157 97 -26 15 -59 35 -72
45 l-26 16 1 -669 0 -669 125 -79 c68 -44 163 -105 209 -135 47 -30 194 -125
326 -210 132 -85 265 -172 297 -192 118 -77 97 -75 245 -23 124 44 184 66 232
85 11 5 47 17 80 28 33 11 125 43 205 72 80 28 190 67 245 86 55 19 123 44
150 54 28 11 113 42 190 69 77 27 148 52 157 56 9 4 21 19 27 33 5 15 27 59
49 97 21 39 59 108 84 155 25 47 57 105 71 130 13 25 45 83 69 130 65 122 122
229 193 360 68 126 110 205 220 410 40 74 87 162 105 195 18 33 53 98 78 145
112 211 189 356 212 395 10 17 38 68 63 115 24 47 77 146 117 220 94 176 143
268 192 360 22 41 44 79 49 84 5 6 9 14 9 18 0 4 -292 8 -648 8 l-648 0 -81
-167z"/>
</g>
</svg>
